<svg width="31" height="30" viewBox="0 0 31 30" fill="none" xmlns="http://www.w3.org/2000/svg">
<path d="M10.5 16.875H20.5M10.5 10.625H15.5" stroke="#141B34" stroke-width="1.5" stroke-linecap="round" stroke-linejoin="round"/>
<path d="M8.12351 23.75C6.49838 23.5901 5.28094 23.102 4.46446 22.2855C3 20.8211 3 18.464 3 13.75V13.125C3 8.41095 3 6.05394 4.46446 4.58946C5.92894 3.125 8.28595 3.125 13 3.125H18C22.714 3.125 25.0711 3.125 26.5355 4.58946C28 6.05394 28 8.41095 28 13.125V13.75C28 18.464 28 20.8211 26.5355 22.2855C25.0711 23.75 22.714 23.75 18 23.75C17.2994 23.7656 16.7414 23.8189 16.1933 23.9437C14.6953 24.2886 13.3081 25.0551 11.9373 25.7236C9.98411 26.676 9.0075 27.1522 8.39461 26.7064C7.22211 25.8331 8.36818 23.1274 8.625 21.875" stroke="#141B34" stroke-width="1.5" stroke-linecap="round"/>
</svg>
