<svg width="31" height="30" viewBox="0 0 31 30" fill="none" xmlns="http://www.w3.org/2000/svg">
<path d="M16.6155 3.51227L27.3595 11.9943C27.764 12.3137 28 12.8006 28 13.316C28 14.2461 27.2461 15 26.316 15H25.5V19.375C25.5 22.9105 25.5 24.6782 24.4016 25.7766C23.3033 26.875 21.5355 26.875 18 26.875H13C9.46446 26.875 7.6967 26.875 6.59835 25.7766C5.5 24.6782 5.5 22.9105 5.5 19.375V15H4.68395C3.75394 15 3 14.2461 3 13.316C3 12.8006 3.236 12.3137 3.6405 11.9943L14.3845 3.51227C14.7021 3.26144 15.0951 3.125 15.5 3.125C15.9049 3.125 16.2979 3.26144 16.6155 3.51227Z" stroke="#141B34" stroke-width="1.5" stroke-linecap="round" stroke-linejoin="round"/>
<path d="M18.625 26.875V21.25C18.625 20.0818 18.625 19.4976 18.3738 19.0625C18.2093 18.7775 17.9725 18.5408 17.6875 18.3763C17.2524 18.125 16.6683 18.125 15.5 18.125C14.3318 18.125 13.7476 18.125 13.3125 18.3763C13.0275 18.5408 12.7908 18.7775 12.6262 19.0625C12.375 19.4976 12.375 20.0818 12.375 21.25V26.875" stroke="#141B34" stroke-width="1.5" stroke-linecap="round" stroke-linejoin="round"/>
</svg>
